<svg width="155" height="155" viewBox="0 0 155 155" fill="none" xmlns="http://www.w3.org/2000/svg">
<g clip-path="url(#clip0_11975_17865)">
<path d="M77.5 154.5C120.026 154.5 154.5 120.026 154.5 77.5C154.5 34.9741 120.026 0.5 77.5 0.5C34.9741 0.5 0.5 34.9741 0.5 77.5C0.5 120.026 34.9741 154.5 77.5 154.5Z" fill="url(#paint0_linear_11975_17865)" stroke="url(#paint1_linear_11975_17865)"/>
<path d="M136 102C138.209 102 140 100.209 140 98C140 95.7909 138.209 94 136 94C133.791 94 132 95.7909 132 98C132 100.209 133.791 102 136 102Z" fill="#B8282E"/>
<path d="M16.5 57C18.433 57 20 55.433 20 53.5C20 51.567 18.433 50 16.5 50C14.567 50 13 51.567 13 53.5C13 55.433 14.567 57 16.5 57Z" fill="#B8282E"/>
<path d="M77 114C97.4345 114 114 97.4345 114 77C114 56.5655 97.4345 40 77 40C56.5655 40 40 56.5655 40 77C40 97.4345 56.5655 114 77 114Z" fill="white"/>
<path d="M124.363 111.867C124.976 111.032 125.658 110.468 126.408 110.173C127.157 109.879 127.947 109.822 128.775 110.003C129.598 110.191 130.427 110.593 131.262 111.207C132.096 111.821 132.722 112.49 133.139 113.214C133.551 113.945 133.724 114.71 133.659 115.508C133.595 116.319 133.257 117.141 132.643 117.976C132.056 118.773 131.389 119.318 130.639 119.613C129.897 119.913 129.109 119.976 128.275 119.802C127.448 119.635 126.617 119.244 125.783 118.63C124.948 118.016 124.324 117.336 123.91 116.592C123.504 115.852 123.333 115.077 123.396 114.267C123.454 113.463 123.776 112.663 124.363 111.867ZM125.05 112.373C124.768 112.756 124.608 113.131 124.571 113.497C124.535 113.876 124.606 114.253 124.783 114.626C124.962 115.013 125.238 115.402 125.611 115.792C125.984 116.182 126.445 116.58 126.994 116.983C127.535 117.382 128.048 117.701 128.532 117.941C129.016 118.181 129.462 118.33 129.872 118.388C130.288 118.451 130.669 118.406 131.013 118.254C131.364 118.107 131.678 117.846 131.955 117.47C132.231 117.094 132.39 116.712 132.432 116.326C132.475 115.952 132.407 115.572 132.228 115.185C132.051 114.811 131.776 114.429 131.402 114.039C131.029 113.649 130.572 113.254 130.031 112.856C129.482 112.452 128.966 112.13 128.482 111.89C127.998 111.65 127.548 111.498 127.131 111.435C126.716 111.385 126.333 111.433 125.981 111.58C125.632 111.74 125.321 112.004 125.05 112.373Z" fill="white"/>
<path d="M121.046 116.522L121.531 117.007L121.501 117.037C121.349 117.189 121.233 117.337 121.154 117.482C121.068 117.634 121.042 117.792 121.075 117.957C121.107 118.135 121.226 118.327 121.431 118.532L124.379 121.484C124.577 121.682 124.755 121.794 124.913 121.82C125.078 121.854 125.23 121.827 125.368 121.742C125.514 121.662 125.659 121.55 125.804 121.405L125.834 121.376L126.319 121.861L124.496 123.681L123.457 123.017L123.408 123.067C123.52 123.351 123.595 123.618 123.635 123.869C123.668 124.126 123.634 124.377 123.535 124.621C123.443 124.872 123.258 125.136 122.98 125.413C122.604 125.789 122.261 126 121.95 126.046C121.634 126.098 121.35 125.999 121.099 125.748C120.835 125.484 120.72 125.177 120.753 124.827C120.793 124.484 120.998 124.128 121.368 123.759C121.552 123.943 121.717 124.076 121.863 124.155C122.008 124.247 122.146 124.287 122.278 124.274C122.41 124.261 122.539 124.192 122.664 124.066C122.843 123.888 122.922 123.677 122.902 123.433C122.889 123.195 122.82 122.948 122.695 122.69C122.563 122.439 122.408 122.198 122.23 121.967C122.046 121.743 121.884 121.561 121.745 121.422L120.093 119.768C119.902 119.577 119.724 119.464 119.559 119.431C119.401 119.405 119.249 119.431 119.104 119.51C118.965 119.596 118.83 119.705 118.697 119.837L118.39 120.143L117.906 119.658L121.046 116.522Z" fill="white"/>
<path d="M111.663 120.607C112.495 119.959 113.224 119.611 113.848 119.563C114.46 119.513 114.963 119.742 115.359 120.25C115.571 120.522 115.69 120.797 115.715 121.072C115.74 121.348 115.683 121.624 115.542 121.899C115.407 122.181 115.207 122.449 114.943 122.702C115.177 122.638 115.432 122.623 115.707 122.658C115.987 122.699 116.225 122.845 116.42 123.096C116.598 123.324 116.678 123.587 116.661 123.884C116.636 124.187 116.548 124.522 116.396 124.889C116.817 124.762 117.242 124.768 117.67 124.908C118.099 125.048 118.476 125.328 118.803 125.748C119.301 126.389 119.511 127.03 119.431 127.672C119.343 128.319 118.924 128.935 118.172 129.52C117.907 129.726 117.632 129.881 117.346 129.985C117.059 130.102 116.808 130.168 116.593 130.181C116.575 130.385 116.544 130.574 116.503 130.748C116.467 130.93 116.406 131.095 116.321 131.244C116.229 131.399 116.105 131.536 115.95 131.657C115.7 131.852 115.467 131.932 115.252 131.899C115.035 131.878 114.863 131.787 114.737 131.625C114.617 131.47 114.559 131.29 114.565 131.085C114.571 130.879 114.706 130.673 114.971 130.467C115.069 130.592 115.186 130.667 115.323 130.691C115.459 130.714 115.587 130.68 115.705 130.589C115.778 130.531 115.843 130.463 115.9 130.383C115.956 130.304 115.996 130.226 116.019 130.149C115.753 130.096 115.48 129.989 115.201 129.827C114.922 129.666 114.67 129.442 114.447 129.155C114.017 128.602 113.832 128.007 113.892 127.369C113.957 126.739 114.358 126.137 115.095 125.564C115.176 125.501 115.285 125.422 115.424 125.326C115.56 125.243 115.668 125.177 115.748 125.127C115.82 124.976 115.86 124.815 115.868 124.643C115.876 124.471 115.823 124.312 115.708 124.164C115.616 124.046 115.501 123.989 115.361 123.991C115.213 123.999 115.037 124.084 114.83 124.244L113.526 125.259C113.055 125.626 112.618 125.854 112.214 125.943C111.816 126.04 111.45 126.017 111.115 125.876C110.78 125.734 110.481 125.494 110.217 125.155C109.701 124.492 109.552 123.775 109.767 123.004C109.97 122.231 110.602 121.432 111.663 120.607ZM112.122 121.243C111.651 121.609 111.312 121.95 111.107 122.263C110.902 122.577 110.809 122.868 110.828 123.136C110.841 123.411 110.944 123.673 111.139 123.923C111.351 124.196 111.582 124.318 111.832 124.289C112.068 124.259 112.349 124.117 112.673 123.865L113.877 122.928C114.047 122.796 114.199 122.642 114.334 122.466C114.462 122.296 114.532 122.105 114.545 121.894C114.545 121.681 114.442 121.442 114.235 121.177C114.075 120.971 113.893 120.828 113.69 120.75C113.48 120.677 113.246 120.681 112.99 120.762C112.728 120.836 112.439 120.996 112.122 121.243ZM115.601 126.146C115.38 126.318 115.247 126.498 115.204 126.685C115.159 126.886 115.192 127.103 115.302 127.336C115.406 127.575 115.569 127.838 115.792 128.125C116.022 128.42 116.242 128.65 116.454 128.817C116.672 128.99 116.887 129.083 117.098 129.096C117.302 129.115 117.514 129.039 117.735 128.867C117.941 128.706 118.061 128.518 118.095 128.303C118.134 128.095 118.096 127.864 117.982 127.611C117.873 127.364 117.704 127.094 117.474 126.799C117.257 126.519 117.045 126.3 116.838 126.141C116.63 125.995 116.424 125.92 116.218 125.914C116.013 125.908 115.807 125.986 115.601 126.146Z" fill="white"/>
<path d="M107.692 127.289C108.048 127.083 108.411 126.965 108.781 126.934C109.148 126.916 109.5 127.003 109.838 127.196C110.168 127.393 110.462 127.714 110.719 128.158C111.093 128.804 111.145 129.416 110.875 129.992C110.605 130.569 110.023 131.138 109.129 131.699L108.144 132.317L108.544 133.008C108.703 133.283 108.864 133.513 109.026 133.7C109.192 133.895 109.375 134.015 109.575 134.061C109.766 134.112 109.995 134.061 110.261 133.907C110.504 133.766 110.661 133.6 110.733 133.407C110.805 133.215 110.806 133.003 110.738 132.773C110.674 132.551 110.57 132.315 110.425 132.065C110.893 131.794 111.277 131.647 111.577 131.624C111.881 131.61 112.118 131.748 112.286 132.039C112.454 132.33 112.485 132.625 112.378 132.924C112.263 133.228 112.047 133.525 111.73 133.817C111.413 134.108 111.041 134.377 110.613 134.625C109.805 135.093 109.108 135.286 108.522 135.205C107.94 135.132 107.43 134.715 106.99 133.956L105.187 130.842C105.061 130.624 104.94 130.462 104.825 130.356C104.707 130.263 104.574 130.221 104.429 130.23C104.288 130.247 104.128 130.307 103.95 130.41L103.914 130.431L103.57 129.837L105.582 128.673L106.35 129.441L106.447 129.385C106.498 129.064 106.56 128.78 106.633 128.533C106.698 128.291 106.812 128.069 106.975 127.866C107.13 127.669 107.369 127.476 107.692 127.289ZM107.655 128.427C107.381 128.586 107.184 128.786 107.065 129.027C106.946 129.269 106.904 129.541 106.939 129.844C106.966 130.152 107.074 130.468 107.261 130.791L107.801 131.724L108.41 131.323C108.78 131.087 109.041 130.849 109.194 130.61C109.339 130.375 109.401 130.129 109.381 129.871C109.353 129.617 109.252 129.341 109.079 129.042C108.939 128.8 108.794 128.614 108.644 128.486C108.498 128.365 108.342 128.299 108.174 128.288C108.006 128.278 107.833 128.324 107.655 128.427Z" fill="white"/>
<path d="M102.843 130.203L103.093 130.842L103.041 130.862C102.841 130.941 102.671 131.032 102.532 131.137C102.392 131.241 102.304 131.376 102.268 131.54C102.224 131.708 102.252 131.922 102.354 132.183L103.894 136.121C103.993 136.373 104.109 136.543 104.244 136.63C104.378 136.718 104.526 136.75 104.688 136.727C104.844 136.716 105.017 136.674 105.209 136.599L105.261 136.578L105.511 137.217L103.007 138.196L102.455 137.285L102.39 137.31C102.346 137.708 102.254 138.025 102.115 138.259C101.971 138.506 101.792 138.702 101.578 138.845C101.355 138.993 101.104 139.121 100.826 139.23C100.148 139.495 99.5392 139.502 99.0004 139.252C98.4616 139.002 98.0188 138.433 97.6721 137.547L96.479 134.496C96.3736 134.226 96.2607 134.04 96.1401 133.937C96.0109 133.837 95.8726 133.791 95.7252 133.798C95.5692 133.809 95.3955 133.852 95.2043 133.927L95.1521 133.947L94.9023 133.308L97.5621 132.268L99.2702 136.636C99.4912 137.201 99.7524 137.6 100.054 137.833C100.35 138.078 100.716 138.115 101.15 137.945C101.481 137.816 101.704 137.618 101.821 137.352C101.928 137.09 101.964 136.785 101.929 136.438C101.885 136.095 101.791 135.74 101.649 135.375L100.639 132.794C100.54 132.542 100.428 132.37 100.302 132.279C100.168 132.191 100.018 132.155 99.8533 132.169C99.692 132.192 99.5157 132.241 99.3244 132.316L99.2723 132.336L99.0224 131.697L102.843 130.203Z" fill="white"/>
<path d="M94.302 133.51L94.4762 134.174L94.3001 134.22C94.1466 134.26 93.9979 134.319 93.8539 134.395C93.7033 134.483 93.5949 134.603 93.5287 134.755C93.4536 134.91 93.4491 135.114 93.5155 135.367L94.617 139.565C94.6834 139.817 94.7861 139.988 94.9252 140.077C95.0667 140.175 95.219 140.222 95.3819 140.218C95.5448 140.214 95.7031 140.192 95.8565 140.151L95.9784 140.119L96.1525 140.783L93.2546 141.543L91.7622 135.856C91.6935 135.594 91.5917 135.408 91.4569 135.299C91.3244 135.199 91.171 135.147 90.9967 135.145C90.8247 135.151 90.662 135.175 90.5085 135.215L90.346 135.258L90.1719 134.594L94.302 133.51ZM94.5366 142.567C94.8164 142.494 95.0746 142.503 95.3111 142.596C95.5386 142.69 95.695 142.9 95.7803 143.225C95.8679 143.559 95.8347 143.819 95.6807 144.004C95.52 144.201 95.2952 144.337 95.0063 144.413C94.7355 144.484 94.4818 144.473 94.2453 144.381C94.0111 144.297 93.8502 144.089 93.7626 143.755C93.6773 143.43 93.715 143.169 93.8757 142.972C94.0364 142.776 94.2567 142.641 94.5366 142.567Z" fill="white"/>
<path d="M89.5849 134.706L89.6706 135.274L86.5156 141.853L88.5921 141.539C88.7674 141.513 88.9056 141.459 89.0066 141.377C89.0983 141.297 89.1693 141.174 89.2194 141.005C89.2617 140.848 89.2963 140.64 89.3233 140.381L89.3452 140.151L90.0789 140.04L90.2486 142.195L84.5314 143.059L84.4436 142.477L87.6145 135.91L85.1505 136.282C84.9474 136.313 84.7968 136.378 84.6986 136.478C84.5912 136.579 84.5131 136.718 84.4644 136.895C84.417 137.082 84.393 137.298 84.3923 137.543L84.3699 137.957L83.65 138.066L83.3555 135.647L89.5849 134.706Z" fill="white"/>
<path d="M79.8865 135.665C80.2971 135.656 80.6721 135.727 81.0116 135.878C81.342 136.039 81.609 136.285 81.8125 136.616C82.0067 136.948 82.1096 137.37 82.1212 137.883C82.138 138.63 81.8893 139.191 81.375 139.567C80.8607 139.942 80.0768 140.161 79.0232 140.222L77.8624 140.29L77.8805 141.088C77.8876 141.405 77.9173 141.685 77.9694 141.926C78.0218 142.177 78.1242 142.371 78.2766 142.507C78.4197 142.644 78.6453 142.709 78.9532 142.702C79.2331 142.696 79.4509 142.626 79.6066 142.491C79.7623 142.357 79.8655 142.173 79.9162 141.938C79.9671 141.713 79.9893 141.456 79.9828 141.167C80.524 141.154 80.9313 141.21 81.2049 141.335C81.4786 141.469 81.6193 141.704 81.6269 142.04C81.6345 142.376 81.5193 142.649 81.2813 142.86C81.034 143.071 80.7015 143.227 80.2837 143.33C79.8659 143.433 79.4098 143.49 78.9152 143.501C77.9821 143.522 77.2782 143.356 76.8034 143.003C76.3289 142.659 76.0817 142.048 76.0619 141.171L75.9806 137.574C75.9749 137.322 75.9471 137.122 75.8971 136.974C75.8379 136.835 75.7423 136.734 75.6102 136.672C75.4783 136.619 75.3097 136.595 75.1044 136.599L75.0624 136.6L75.0469 135.915L77.3703 135.862L77.674 136.906L77.7859 136.903C77.9855 136.646 78.1766 136.427 78.3593 136.246C78.5325 136.065 78.7394 135.925 78.9799 135.826C79.2111 135.727 79.5133 135.674 79.8865 135.665ZM79.3065 136.645C78.9892 136.652 78.7203 136.733 78.4998 136.887C78.2792 137.041 78.1114 137.26 77.9964 137.542C77.8721 137.825 77.8142 138.153 77.8226 138.527L77.847 139.604L78.5738 139.546C79.012 139.517 79.3555 139.435 79.6045 139.299C79.8442 139.162 80.0173 138.977 80.124 138.741C80.2214 138.505 80.2662 138.215 80.2584 137.869C80.2521 137.59 80.2141 137.357 80.1446 137.172C80.0753 136.996 79.9696 136.863 79.8275 136.773C79.6855 136.683 79.5118 136.64 79.3065 136.645Z" fill="white"/>
<path d="M71.1923 135.457C71.8518 135.522 72.3422 135.734 72.6635 136.093C72.9754 136.452 73.0919 137.035 73.013 137.843L72.5709 142.372L73.6299 142.475L73.566 143.13C73.3151 143.106 73.0733 143.134 72.8404 143.214C72.6075 143.295 72.4094 143.402 72.2463 143.536C72.0915 143.68 71.9471 143.863 71.8129 144.084C71.6788 144.306 71.5629 144.58 71.4652 144.909L70.5038 144.815L70.6725 143.087L68.875 142.911L68.9621 142.02L70.7595 142.195L71.1949 137.736C71.2375 137.3 71.1903 136.967 71.0532 136.738C70.906 136.517 70.6744 136.391 70.3586 136.361C70.1728 136.342 70.0047 136.335 69.8542 136.339C69.6936 136.352 69.5372 136.369 69.3849 136.392L69.4625 135.598C69.6081 135.546 69.8374 135.503 70.1503 135.468C70.4548 135.423 70.8022 135.419 71.1923 135.457Z" fill="white"/>
<path d="M68.9299 135.354L68.8049 136.029L68.6259 135.995C68.4699 135.967 68.3105 135.956 68.1477 135.964C67.974 135.979 67.8248 136.042 67.7 136.151C67.5661 136.259 67.4753 136.442 67.4277 136.699L66.6369 140.966C66.5892 141.223 66.6094 141.422 66.6975 141.561C66.7838 141.71 66.9015 141.817 67.0507 141.883C67.2 141.949 67.3526 141.996 67.5086 142.025L67.6325 142.048L67.5075 142.722L64.5616 142.176L65.6331 136.395C65.6824 136.129 65.6693 135.917 65.5939 135.761C65.5168 135.614 65.3998 135.502 65.2432 135.425C65.0848 135.358 64.9276 135.31 64.7716 135.281L64.6064 135.251L64.7314 134.576L68.9299 135.354ZM65.2854 143.649C65.5699 143.702 65.7995 143.82 65.9742 144.004C66.1397 144.187 66.1918 144.443 66.1306 144.774C66.0677 145.113 65.9271 145.334 65.7089 145.436C65.4798 145.545 65.2184 145.573 64.9247 145.518C64.6494 145.467 64.4244 145.35 64.2497 145.166C64.0733 144.99 64.0166 144.733 64.0795 144.394C64.1407 144.063 64.2859 143.843 64.515 143.734C64.7441 143.624 65.0009 143.596 65.2854 143.649Z" fill="white"/>
<path d="M60.5633 133.19C61.5903 133.502 62.3094 134.056 62.7206 134.854C63.1229 135.65 63.1314 136.681 62.7463 137.949C62.3665 139.2 61.8018 140.048 61.052 140.493C60.2933 140.935 59.3603 140.989 58.2529 140.652C57.2169 140.338 56.4978 139.783 56.0956 138.988C55.6933 138.192 55.682 137.17 56.0618 135.919C56.4469 134.651 57.0188 133.796 57.7776 133.353C58.5273 132.908 59.4559 132.853 60.5633 133.19ZM60.2965 133.972C59.9124 133.855 59.5763 133.87 59.2879 134.017C58.9879 134.169 58.721 134.454 58.4871 134.871C58.2533 135.288 58.0387 135.817 57.8434 136.46C57.6454 137.112 57.5349 137.669 57.5119 138.13C57.4799 138.589 57.5475 138.96 57.7146 139.245C57.87 139.536 58.1398 139.74 58.5238 139.857C58.8989 139.971 59.2364 139.951 59.5364 139.798C59.8337 139.655 60.0966 139.383 60.325 138.984C60.5534 138.586 60.7666 138.06 60.9646 137.408C61.1626 136.756 61.279 136.197 61.3136 135.729C61.3394 135.259 61.2745 134.879 61.1191 134.587C60.9547 134.294 60.6805 134.088 60.2965 133.972Z" fill="white"/>
<path d="M56.2123 131.964L55.9159 132.583L55.8654 132.558C55.6718 132.466 55.4892 132.404 55.3175 132.374C55.1458 132.343 54.9876 132.371 54.843 132.457C54.6899 132.539 54.5529 132.706 54.4319 132.958L52.6053 136.771C52.4884 137.016 52.4438 137.217 52.4715 137.375C52.4992 137.533 52.5766 137.663 52.7036 137.765C52.8181 137.872 52.9679 137.97 53.1531 138.058L53.2036 138.083L52.9072 138.701L50.483 137.54L50.7725 136.514L50.7094 136.484C50.3878 136.723 50.0939 136.872 49.8278 136.931C49.5491 136.994 49.2841 136.997 49.0326 136.938C48.7727 136.876 48.5081 136.78 48.2388 136.651C47.5822 136.337 47.1615 135.897 46.9766 135.333C46.7917 134.768 46.9049 134.056 47.3162 133.198L48.7315 130.243C48.8565 129.982 48.9156 129.773 48.9087 129.614C48.8934 129.452 48.8328 129.319 48.7267 129.216C48.6121 129.11 48.4623 129.012 48.2771 128.923L48.2266 128.899L48.523 128.281L51.0987 129.514L49.0725 133.744C48.8104 134.291 48.6972 134.754 48.7328 135.134C48.756 135.517 48.9781 135.81 49.3989 136.012C49.7188 136.165 50.0157 136.193 50.2895 136.097C50.555 135.996 50.8024 135.815 51.0318 135.552C51.2527 135.285 51.4478 134.975 51.6172 134.622L52.8147 132.122C52.9317 131.878 52.9805 131.678 52.9612 131.524C52.9334 131.366 52.8581 131.232 52.7352 131.121C52.6082 131.019 52.4521 130.923 52.267 130.835L52.2164 130.81L52.5128 130.192L56.2123 131.964Z" fill="white"/>
<path d="M42.6893 124.218C43.1666 124.577 43.5226 124.927 43.7573 125.267C43.9845 125.601 44.1025 125.918 44.1114 126.217C44.1147 126.523 44.0209 126.803 43.8301 127.056C43.6562 127.287 43.4749 127.42 43.2863 127.453C43.0921 127.494 42.9101 127.48 42.7404 127.41C42.565 127.348 42.4214 127.275 42.3095 127.191C42.5284 126.9 42.6772 126.609 42.7561 126.318C42.8218 126.029 42.8129 125.754 42.7293 125.492C42.6401 125.238 42.465 125.013 42.204 124.817C41.8087 124.519 41.4561 124.382 41.1462 124.406C40.8363 124.43 40.5887 124.565 40.4036 124.811C40.2745 124.983 40.2061 125.159 40.1984 125.34C40.1832 125.515 40.2342 125.735 40.3513 125.998C40.4685 126.262 40.6556 126.595 40.9126 126.999C41.1882 127.44 41.3985 127.843 41.5436 128.209C41.683 128.583 41.7357 128.932 41.7016 129.257C41.6675 129.581 41.5242 129.912 41.2716 130.247C40.8508 130.807 40.3249 131.071 39.694 131.04C39.0575 131.017 38.3962 130.747 37.7101 130.23C37.2775 129.905 36.9634 129.593 36.7679 129.294C36.5724 128.995 36.4729 128.716 36.4696 128.456C36.4606 128.204 36.5235 127.989 36.6582 127.81C36.8321 127.578 37.0488 127.461 37.3083 127.458C37.5603 127.449 37.8616 127.576 38.2121 127.84C37.9316 128.213 37.7976 128.562 37.8101 128.887C37.8171 129.219 37.9846 129.509 38.3128 129.755C38.4992 129.896 38.6895 129.992 38.8835 130.045C39.0701 130.092 39.2493 130.086 39.4212 130.029C39.5874 129.979 39.7322 129.871 39.8557 129.707C39.9791 129.543 40.0438 129.364 40.0497 129.17C40.05 128.983 39.9841 128.753 39.8519 128.478C39.7198 128.204 39.5178 127.859 39.2459 127.444C38.989 127.04 38.7991 126.664 38.6765 126.315C38.5407 125.967 38.4899 125.631 38.524 125.307C38.5581 124.982 38.693 124.663 38.9287 124.35C39.3832 123.745 39.9427 123.436 40.6073 123.423C41.2644 123.403 41.9584 123.668 42.6893 124.218Z" fill="white"/>
<path d="M39.6114 122.044L39.149 122.55L39.0145 122.428C38.8973 122.321 38.7676 122.227 38.6252 122.148C38.4697 122.069 38.3099 122.043 38.146 122.071C37.9752 122.092 37.8017 122.199 37.6255 122.392L34.6998 125.597C34.5236 125.79 34.436 125.969 34.4369 126.135C34.4315 126.307 34.4748 126.46 34.5669 126.594C34.6589 126.729 34.7635 126.85 34.8807 126.957L34.9738 127.042L34.5113 127.548L32.2984 125.529L36.2624 121.186C36.4449 120.986 36.5454 120.799 36.5639 120.627C36.5762 120.461 36.536 120.304 36.4434 120.157C36.3445 120.016 36.2364 119.892 36.1192 119.785L35.9951 119.672L36.4576 119.165L39.6114 122.044ZM32.1351 127.161C32.3488 127.356 32.4811 127.578 32.5321 127.827C32.5762 128.069 32.485 128.315 32.2585 128.563C32.0257 128.818 31.7897 128.931 31.5506 128.902C31.2982 128.874 31.0618 128.759 30.8412 128.558C30.6344 128.369 30.5055 128.151 30.4545 127.902C30.3972 127.66 30.485 127.412 30.7178 127.156C30.9443 126.908 31.1837 126.798 31.436 126.826C31.6884 126.855 31.9214 126.966 32.1351 127.161Z" fill="white"/>
<path d="M36.0817 118.772L35.5614 119.219L35.5249 119.177C35.385 119.014 35.2426 118.884 35.0977 118.787C34.9528 118.69 34.7968 118.652 34.6298 118.672C34.4567 118.686 34.264 118.784 34.0517 118.966L30.8453 121.722C30.64 121.899 30.5183 122.065 30.48 122.221C30.4417 122.377 30.4602 122.527 30.5353 122.672C30.5972 122.815 30.6951 122.965 30.829 123.121L30.8655 123.163L30.3452 123.61L28.5931 121.572L29.2708 120.749L29.2252 120.696C28.8345 120.786 28.5055 120.804 28.2382 120.751C27.9577 120.697 27.7141 120.592 27.5074 120.437C27.2946 120.276 27.0908 120.082 26.8961 119.855C26.4216 119.303 26.2133 118.731 26.2712 118.14C26.3291 117.549 26.7191 116.943 27.441 116.322L29.9255 114.187C30.1449 113.998 30.2833 113.83 30.3408 113.682C30.3923 113.527 30.39 113.382 30.3342 113.245C30.2722 113.101 30.1743 112.952 30.0405 112.796L30.004 112.753L30.5242 112.306L32.3858 114.472L28.8291 117.529C28.369 117.925 28.079 118.303 27.959 118.665C27.8259 119.025 27.9114 119.383 28.2156 119.736C28.4467 120.005 28.7071 120.151 28.9967 120.173C29.2801 120.188 29.5797 120.121 29.8954 119.973C30.2049 119.817 30.5083 119.612 30.8056 119.356L32.9078 117.55C33.1131 117.373 33.2379 117.21 33.2822 117.062C33.3205 116.906 33.3056 116.752 33.2376 116.602C33.1625 116.457 33.058 116.307 32.9242 116.151L32.8877 116.108L33.4079 115.661L36.0817 118.772Z" fill="white"/>
<path d="M28.2059 108.533C28.5588 109.083 28.7653 109.638 28.8255 110.198C28.8856 110.758 28.7582 111.311 28.4432 111.857C28.1203 112.408 27.5623 112.939 26.7689 113.448C25.9285 113.987 25.1906 114.289 24.5551 114.353C23.9068 114.414 23.347 114.302 22.8755 114.017C22.3991 113.724 21.992 113.314 21.6542 112.788C21.3719 112.348 21.1759 111.93 21.0663 111.535C20.9516 111.132 20.9241 110.778 20.9838 110.473C21.0435 110.169 21.199 109.936 21.4503 109.775C21.6231 109.664 21.8079 109.606 22.0048 109.602C22.1887 109.595 22.383 109.664 22.5876 109.81C22.7921 109.956 23.0028 110.198 23.2196 110.535C22.9525 110.707 22.7267 110.891 22.5421 111.087C22.3524 111.275 22.2311 111.475 22.1782 111.686C22.1203 111.89 22.1645 112.105 22.3107 112.333C22.472 112.585 22.6942 112.758 22.9773 112.854C23.2476 112.946 23.6079 112.92 24.0583 112.775C24.5087 112.63 25.0756 112.339 25.759 111.9C26.3009 111.552 26.7173 111.207 27.008 110.865C27.2909 110.529 27.4521 110.192 27.4916 109.856C27.5261 109.513 27.4248 109.156 27.1879 108.787C27.0215 108.528 26.831 108.317 26.6163 108.156C26.3966 107.986 26.1696 107.866 25.9352 107.794C25.688 107.72 25.4502 107.695 25.222 107.72C25.2265 107.606 25.2594 107.502 25.3206 107.407C25.3768 107.304 25.4598 107.218 25.5698 107.147C25.7662 107.021 26.009 106.976 26.2984 107.012C26.5877 107.048 26.8986 107.187 27.2309 107.429C27.5583 107.662 27.8832 108.03 28.2059 108.533Z" fill="white"/>
<path d="M24.7404 102.134C25.2193 103.146 25.2847 104.07 24.9367 104.906C24.5762 105.737 23.8475 106.412 22.7507 106.931C21.5696 107.49 20.5557 107.649 19.7093 107.41C18.8504 107.165 18.1954 106.567 17.7444 105.613C17.3254 104.727 17.2555 103.914 17.5347 103.173C17.8014 102.427 18.4368 101.817 19.4408 101.342L20.0609 101.048L22.0365 105.225C22.6191 104.928 23.0641 104.625 23.3714 104.314C23.6664 103.999 23.8426 103.673 23.9 103.336C23.9535 102.991 23.8924 102.633 23.7168 102.262C23.5771 101.966 23.4112 101.725 23.2191 101.537C23.0145 101.344 22.8006 101.198 22.5774 101.097C22.3457 101 22.1173 100.943 21.8923 100.925C21.8905 100.813 21.9283 100.707 22.0056 100.609C22.0705 100.506 22.1662 100.424 22.2928 100.364C22.5037 100.265 22.7523 100.255 23.0386 100.337C23.3209 100.41 23.6134 100.591 23.916 100.882C24.2062 101.168 24.481 101.585 24.7404 102.134ZM20.0978 103.091C19.6675 103.294 19.31 103.51 19.0253 103.737C18.7406 103.965 18.5538 104.203 18.4649 104.452C18.3636 104.696 18.3787 104.957 18.5104 105.235C18.6382 105.505 18.8281 105.699 19.0802 105.818C19.3283 105.928 19.6386 105.961 20.011 105.919C20.3711 105.873 20.7891 105.753 21.2652 105.559L20.0978 103.091Z" fill="white"/>
<path d="M21.6907 94.9075L20.4411 95.2196L17.6469 93.6809C17.1309 93.3865 16.668 93.151 16.2583 92.9744C15.8486 92.7977 15.4763 92.6743 15.1413 92.6041C14.795 92.527 14.4645 92.4941 14.1498 92.5054C13.8329 92.5076 13.5069 92.5505 13.1719 92.6342C12.8278 92.7202 12.5505 92.8424 12.3399 93.0008C12.1271 93.1501 11.9833 93.3255 11.9086 93.527C11.8338 93.7284 11.8293 93.9605 11.8949 94.2231C11.9808 94.5672 12.1392 94.8162 12.3701 94.9702C12.5987 95.1151 12.8907 95.1864 13.2461 95.1843C13.5902 95.1753 13.9931 95.1131 14.4549 94.9977C14.5296 95.2966 14.5601 95.5727 14.5464 95.8263C14.5215 96.073 14.4388 96.2812 14.2984 96.451C14.158 96.6207 13.9475 96.7407 13.6668 96.8108C13.3227 96.8967 12.9888 96.8695 12.6651 96.7291C12.3301 96.5819 12.028 96.3158 11.7587 95.931C11.4894 95.5461 11.2767 95.0413 11.1207 94.4164C10.9601 93.7735 10.9149 93.2076 10.9852 92.7187C11.0554 92.2297 11.2344 91.8291 11.5219 91.5168C11.7981 91.1976 12.1672 90.9804 12.629 90.8651C12.8825 90.8017 13.1406 90.7757 13.4032 90.7871C13.6657 90.7985 13.9419 90.8449 14.2316 90.9265C14.5214 91.008 14.845 91.1292 15.2027 91.29C15.5512 91.4531 15.9451 91.6625 16.3842 91.9184C16.821 92.1652 17.3122 92.4562 17.8576 92.7914L20.0509 94.0617L19.2638 90.9105C19.1823 90.5845 19.0341 90.357 18.8191 90.2279C18.5927 90.0921 18.3245 90.0196 18.0144 90.0105L17.6409 90.0172L17.4611 89.2973L20.1402 88.7002L21.6907 94.9075Z" fill="white"/>
<path d="M19.6445 84.0278C19.7369 84.8439 19.5977 85.5219 19.2268 86.0617C18.8558 86.6016 18.2981 87.0264 17.5536 87.3362C16.809 87.6459 15.9221 87.8591 14.8927 87.9757C13.8632 88.0924 12.9557 88.0824 12.17 87.946C11.3843 87.8096 10.755 87.5193 10.282 87.075C9.80892 86.6308 9.52566 85.9959 9.43216 85.1706C9.34391 84.3915 9.48113 83.7373 9.84384 83.2077C10.2055 82.6689 10.7581 82.24 11.5016 81.921C12.2347 81.5937 13.116 81.3718 14.1454 81.2551C15.1748 81.1385 16.0881 81.1572 16.8851 81.3111C17.6719 81.4568 18.3064 81.7513 18.7887 82.1945C19.271 82.6377 19.5562 83.2488 19.6445 84.0278ZM18.7959 84.1239C18.7633 83.8364 18.6438 83.6104 18.4373 83.446C18.2205 83.2733 17.9255 83.1564 17.5522 83.0954C17.1686 83.0261 16.7099 82.9982 16.1761 83.0117C15.6422 83.0252 15.0367 83.0703 14.3597 83.147C13.6827 83.2237 13.0872 83.3147 12.5731 83.4199C12.0487 83.5169 11.6119 83.6415 11.2629 83.7937C10.9138 83.946 10.6575 84.13 10.4941 84.3458C10.3204 84.5533 10.2493 84.7962 10.2808 85.0744C10.3133 85.3619 10.438 85.592 10.6548 85.7647C10.8624 85.9384 11.1533 86.0605 11.5276 86.1308C11.9019 86.2011 12.356 86.2295 12.8898 86.216C13.4144 86.2035 14.0152 86.159 14.6923 86.0823C15.3693 86.0056 15.9694 85.9141 16.4928 85.8078C17.0162 85.7016 17.457 85.5718 17.8154 85.4185C18.1645 85.2662 18.4259 85.0863 18.5996 84.8788C18.763 84.663 18.8285 84.4114 18.7959 84.1239Z" fill="white"/>
<path d="M19.0978 78.8167L18.4119 78.8018L18.4351 77.738C18.439 77.5607 18.419 77.4063 18.3752 77.2746C18.3221 77.1428 18.2309 77.0427 18.1017 76.9746C17.9634 76.8969 17.7682 76.8553 17.5163 76.8498L10.364 76.6939C10.6482 76.9335 10.9 77.1583 11.1194 77.3685C11.3296 77.5785 11.4933 77.7781 11.6105 77.9674C11.7278 78.1566 11.7843 78.3446 11.7803 78.5312C11.7756 78.7458 11.6876 78.9259 11.5164 79.0716C11.3452 79.2172 11.1196 79.287 10.8397 79.2809C10.7971 79.0932 10.7407 78.896 10.6706 78.689C10.5913 78.4726 10.4843 78.2415 10.3496 77.9959C10.2058 77.7407 10.0253 77.4567 9.80803 77.1439L9.10156 76.1482L9.13024 74.8326L17.5562 75.0162C17.7802 75.0211 17.9628 74.9971 18.1039 74.9441C18.2453 74.8819 18.3501 74.7861 18.4183 74.6569C18.4771 74.5275 18.5088 74.3602 18.5132 74.1549L18.534 73.2031L19.2198 73.2181L19.0978 78.8167Z" fill="white"/>
<path d="M19.9781 68.51C19.8521 69.3217 19.5392 69.939 19.0392 70.362C18.5391 70.7851 17.8891 71.0479 17.0893 71.1505C16.2894 71.2532 15.3776 71.2251 14.3538 71.0664C13.33 70.9076 12.4573 70.6589 11.7353 70.3202C11.0133 69.9816 10.4826 69.5357 10.1434 68.9825C9.80421 68.4293 9.69824 67.7423 9.82554 66.9214C9.94568 66.1467 10.2504 65.5517 10.7398 65.1365C11.2307 64.712 11.8767 64.4439 12.678 64.332C13.4715 64.2095 14.3801 64.2276 15.4039 64.3864C16.4276 64.5451 17.3038 64.8038 18.0321 65.1623C18.7526 65.5102 19.287 65.9614 19.6355 66.516C19.984 67.0706 20.0982 67.7353 19.9781 68.51ZM19.1341 68.3792C19.1785 68.0933 19.1227 67.8438 18.9669 67.6307C18.8032 67.407 18.5494 67.2165 18.2054 67.0593C17.8537 66.8914 17.4184 66.7436 16.8999 66.616C16.3813 66.4883 15.7854 66.3723 15.1121 66.2679C14.4388 66.1635 13.8404 66.0943 13.3168 66.0603C12.7854 66.0157 12.3312 66.0208 11.9543 66.0757C11.5775 66.1306 11.2817 66.2406 11.0672 66.4056C10.8449 66.5601 10.7123 66.7756 10.6694 67.0523C10.6251 67.3382 10.6847 67.5931 10.8484 67.8168C11.0028 68.0391 11.2513 68.2334 11.5938 68.3999C11.9363 68.5664 12.367 68.7134 12.8856 68.8411C13.3949 68.9673 13.9861 69.0826 14.6595 69.187C15.3328 69.2914 15.9359 69.3613 16.4687 69.3967C17.0016 69.4321 17.4611 69.4231 17.8472 69.3696C18.224 69.3148 18.5236 69.2101 18.7458 69.0557C18.9604 68.8906 19.0898 68.6651 19.1341 68.3792Z" fill="white"/>
<path d="M30.6064 43.6185L30.0898 43.1672L30.7898 42.3659C30.9065 42.2323 30.9902 42.101 31.041 41.9719C31.0848 41.8366 31.079 41.7014 31.0236 41.5663C30.9673 41.4179 30.8442 41.2609 30.6545 41.0951L25.2668 36.3884C25.3311 36.7545 25.3801 37.0885 25.4138 37.3906C25.4403 37.6864 25.4379 37.9446 25.4065 38.165C25.375 38.3854 25.2979 38.5659 25.1751 38.7064C25.0339 38.8681 24.8509 38.9499 24.6261 38.9518C24.4013 38.9538 24.1835 38.8626 23.9727 38.6784C24.0603 38.5071 24.1436 38.3196 24.2224 38.1159C24.3004 37.8989 24.3665 37.653 24.4207 37.3782C24.474 37.0902 24.5177 36.7565 24.5516 36.3771L24.6481 35.1602L25.5139 34.1691L31.8611 39.7139C32.0298 39.8612 32.1852 39.9599 32.3275 40.0098C32.4759 40.0527 32.6177 40.0465 32.7529 39.991C32.881 39.9295 33.0126 39.8214 33.1477 39.6667L33.7741 38.9498L34.2907 39.4011L30.6064 43.6185Z" fill="white"/>
<path d="M36.873 36.9601L36.417 36.4475L36.7099 36.187C36.8703 36.0443 36.9977 35.8997 37.0922 35.7532C37.1937 35.6004 37.2363 35.4376 37.2199 35.2648C37.1974 35.085 37.0899 34.887 36.8976 34.6708L36.2555 33.9491L33.2431 36.6291L32.7499 36.0747L31.4318 28.4216L32.7079 27.2863L37.007 32.1188L38.1785 31.0766L38.7554 31.7251L37.5839 32.7673L38.226 33.489C38.4183 33.7052 38.6025 33.835 38.7784 33.8783C38.9482 33.9146 39.1148 33.8913 39.2783 33.8083C39.4418 33.7253 39.6003 33.6156 39.7537 33.4791L39.8897 33.3581L40.3457 33.8707L36.873 36.9601ZM33.3984 35.3292L35.6786 33.3006L34.0129 31.4283C33.8764 31.2749 33.7338 31.1145 33.5849 30.9471C33.4368 30.7666 33.2821 30.5857 33.1208 30.4044C32.9664 30.2168 32.8152 30.0328 32.6671 29.8523C32.5198 29.6586 32.3817 29.4753 32.253 29.3025C32.2863 29.4103 32.3267 29.568 32.3741 29.7757C32.4284 29.9772 32.4816 30.1984 32.5336 30.4395C32.5857 30.6805 32.6319 30.908 32.6723 31.1219C32.7065 31.3288 32.7333 31.4924 32.7527 31.6125L33.3984 35.3292Z" fill="white"/>
<path d="M45.3268 33.427C45.7439 33.1788 46.0674 32.9103 46.2974 32.6214C46.5321 32.3406 46.6901 32.0402 46.7713 31.7204C46.8653 31.4038 46.8994 31.0686 46.8735 30.7148C46.8476 30.3609 46.7873 29.995 46.6927 29.6168L41.3604 25.6378C41.2055 25.5236 41.0641 25.4503 40.9362 25.4178C40.8163 25.3805 40.7011 25.3785 40.5905 25.4117C40.4752 25.4369 40.3533 25.4877 40.225 25.564L40.1889 25.5855L39.8095 24.9478L43.0219 23.0365L43.3727 23.6261L43.3366 23.6475C43.112 23.7812 42.957 23.9222 42.8716 24.0708C42.7862 24.2193 42.7984 24.3858 42.9082 24.5703C42.9464 24.6345 43.0037 24.7035 43.0803 24.7775C43.1521 24.8433 43.2255 24.9028 43.3005 24.9559L45.4384 26.6326C45.5852 26.7516 45.7232 26.8649 45.8525 26.9726C45.9818 27.0804 46.0982 27.1848 46.2019 27.2861C46.3136 27.3825 46.4149 27.4797 46.5057 27.5777C46.5918 27.6677 46.6692 27.752 46.7377 27.8307C46.6552 27.6191 46.5833 27.3795 46.5219 27.112C46.4684 26.8397 46.43 26.629 46.4066 26.4801L45.7976 23.6495C45.7772 23.5421 45.748 23.4292 45.71 23.3106C45.6673 23.184 45.6244 23.0846 45.5815 23.0124C45.4717 22.8279 45.3208 22.7385 45.1287 22.7442C44.9446 22.7451 44.7202 22.8243 44.4555 22.9818L44.4074 23.0104L44.0566 22.4209L46.6915 20.8532L47.0423 21.4427L46.9941 21.4714C46.8498 21.5573 46.7381 21.6617 46.6592 21.7847C46.5836 21.8948 46.5462 22.042 46.5472 22.226C46.5433 22.4021 46.5665 22.6327 46.6166 22.9178L47.7635 28.9797C47.9033 29.6894 47.9867 30.2859 48.0137 30.7694C48.0408 31.2529 47.992 31.6729 47.8674 32.0294C47.7509 32.3811 47.532 32.7068 47.2107 33.0066C46.8942 33.3143 46.4513 33.6376 45.8818 33.9764L45.7133 34.0767L45.3268 33.427Z" fill="white"/>
<path d="M54.436 25.8054C53.4041 26.2409 52.4781 26.2671 51.6578 25.8839C50.8426 25.4884 50.199 24.7318 49.7272 23.6139C49.2192 22.4101 49.1028 21.3904 49.3783 20.5549C49.6587 19.7071 50.2848 19.0782 51.2564 18.6681C52.1593 18.287 52.9751 18.2517 53.7038 18.5621C54.4375 18.8603 55.0203 19.521 55.4521 20.5443L55.7189 21.1763L51.4625 22.9727C51.7337 23.5674 52.018 24.0249 52.3152 24.3451C52.6175 24.6532 52.9357 24.8431 53.2699 24.9148C53.6126 24.9828 53.9732 24.937 54.3516 24.7773C54.6525 24.6503 54.9009 24.4948 55.0968 24.3108C55.2977 24.1146 55.4532 23.9072 55.5635 23.6884C55.6701 23.461 55.737 23.2353 55.7639 23.0112C55.8767 23.0142 55.9806 23.0565 56.0757 23.1379C56.1759 23.2071 56.2531 23.3061 56.3076 23.4351C56.3983 23.6501 56.3969 23.8989 56.3035 24.1815C56.2186 24.4604 56.0246 24.7449 55.7215 25.0349C55.4234 25.3127 54.9949 25.5695 54.436 25.8054ZM53.6768 21.1264C53.4917 20.6879 53.2915 20.3215 53.0762 20.0275C52.8609 19.7334 52.631 19.5366 52.3864 19.4372C52.1468 19.3256 51.8852 19.3297 51.6014 19.4494C51.3262 19.5656 51.1242 19.7471 50.9954 19.9939C50.8752 20.2371 50.8282 20.5457 50.8543 20.9197C50.8854 21.2814 50.9878 21.7041 51.1616 22.1879L53.6768 21.1264Z" fill="white"/>
<path d="M60.4777 23.6659C60.0814 23.7737 59.7004 23.7951 59.3345 23.7301C58.9752 23.6537 58.6569 23.4791 58.3796 23.2063C58.1114 22.931 57.9099 22.5457 57.7752 22.0504C57.5793 21.3299 57.6858 20.7254 58.0947 20.237C58.5035 19.7487 59.2119 19.3481 60.2198 19.0354L61.3301 18.69L61.1207 17.92C61.0375 17.6137 60.9415 17.3497 60.8328 17.1277C60.7217 16.8968 60.5757 16.7334 60.3948 16.6375C60.223 16.5391 59.9885 16.5303 59.6913 16.6111C59.4211 16.6846 59.2266 16.8052 59.1078 16.9729C58.9889 17.1406 58.9331 17.3444 58.9403 17.5843C58.945 17.8151 58.9853 18.0701 59.0612 18.3493C58.5389 18.4913 58.13 18.5348 57.8345 18.4797C57.5366 18.4157 57.3435 18.2215 57.2554 17.8973C57.1672 17.573 57.2133 17.28 57.3936 17.0182C57.5829 16.754 57.868 16.5217 58.2488 16.3214C58.6296 16.1212 59.0586 15.9562 59.536 15.8264C60.4366 15.5815 61.1598 15.5735 61.7057 15.8023C62.249 16.0221 62.6358 16.5553 62.866 17.4019L63.8099 20.8739C63.876 21.1171 63.9512 21.3046 64.0354 21.4364C64.1262 21.5568 64.2432 21.6314 64.3864 21.6602C64.5272 21.68 64.6967 21.6629 64.8948 21.609L64.9353 21.598L65.1153 22.26L62.8727 22.8697L62.3271 21.9299L62.219 21.9593C62.087 22.2564 61.9541 22.5149 61.8205 22.735C61.6959 22.9527 61.5288 23.1384 61.3191 23.2921C61.1184 23.4434 60.838 23.568 60.4777 23.6659ZM60.8052 22.5758C61.1114 22.4926 61.353 22.3495 61.53 22.1466C61.707 21.9438 61.8173 21.6913 61.8609 21.3893C61.9135 21.0848 61.8909 20.7525 61.7929 20.3922L61.5101 19.352L60.8186 19.5835C60.4002 19.7166 60.0866 19.8792 59.8777 20.0715C59.6778 20.2612 59.5544 20.4834 59.5075 20.7379C59.4697 20.99 59.4961 21.2827 59.5867 21.6159C59.6601 21.8861 59.7529 22.1027 59.8649 22.2657C59.9745 22.4196 60.109 22.5233 60.2686 22.5766C60.4282 22.63 60.6071 22.6297 60.8052 22.5758Z" fill="white"/>
<path d="M65.9401 22.083L65.8479 21.4033L65.8896 21.3976C66.1023 21.3688 66.2841 21.3206 66.4351 21.2531C66.5953 21.1843 66.7123 21.0742 66.7859 20.923C66.8676 20.7612 66.889 20.537 66.8502 20.2502L66.29 16.116C66.2524 15.8386 66.1786 15.6413 66.0686 15.5244C65.9573 15.3982 65.8205 15.3273 65.6583 15.3116C65.4948 15.2866 65.3113 15.2879 65.1078 15.3155L65.0662 15.3211L64.9741 14.6414L67.5268 14.2955L67.952 15.4529L68.0214 15.4435C68.104 15.1497 68.2055 14.8911 68.326 14.6675C68.4556 14.4427 68.6338 14.2632 68.8605 14.1289C69.0859 13.9853 69.3928 13.8872 69.7813 13.8346C70.3085 13.7631 70.7095 13.803 70.9842 13.9541C71.2683 14.104 71.4341 14.3547 71.4817 14.7061C71.5318 15.0761 71.4378 15.3902 71.1997 15.6485C70.9603 15.8976 70.5816 16.0572 70.0637 16.1274C70.0286 15.8684 69.9773 15.6635 69.9098 15.5125C69.8502 15.3511 69.7639 15.2356 69.6509 15.1661C69.5379 15.0967 69.3935 15.0739 69.2178 15.0977C68.9681 15.1315 68.7771 15.2516 68.645 15.4579C68.5115 15.6549 68.4168 15.8938 68.3606 16.1745C68.3137 16.454 68.2912 16.7396 68.2931 17.0314C68.3042 17.3218 68.3229 17.5642 68.3492 17.7584L68.6631 20.0752C68.6995 20.3434 68.7733 20.5406 68.8846 20.6669C68.9946 20.7838 69.1314 20.8547 69.2949 20.8797C69.4571 20.8954 69.6307 20.8907 69.8157 20.8656L70.2458 20.8074L70.3379 21.4871L65.9401 22.083Z" fill="white"/>
<path d="M75.6892 21.2649C75.0919 21.2764 74.5961 21.2207 74.2016 21.0976C73.8165 20.9744 73.5284 20.798 73.3372 20.5683C73.1459 20.3293 73.0471 20.0511 73.041 19.7339C73.0354 19.4446 73.0966 19.2287 73.2245 19.0862C73.3522 18.9344 73.5043 18.8334 73.6807 18.7833C73.8569 18.7239 74.015 18.6928 74.155 18.6901C74.162 19.054 74.2243 19.3749 74.3417 19.6527C74.4682 19.9209 74.645 20.1322 74.8721 20.2865C75.0989 20.4315 75.3756 20.5008 75.7022 20.4945C76.1968 20.4849 76.5588 20.3752 76.7881 20.1654C77.0174 19.9556 77.1291 19.6967 77.1231 19.3887C77.1189 19.1741 77.0641 18.9931 76.9585 18.8458C76.8623 18.6983 76.6869 18.557 76.4322 18.4219C76.1776 18.2868 75.8246 18.1397 75.3735 17.9804C74.8846 17.8031 74.4702 17.6151 74.1303 17.4163C73.7902 17.2082 73.5335 16.9658 73.3601 16.6891C73.1867 16.4124 73.0959 16.0641 73.0878 15.6442C73.0742 14.9443 73.3253 14.412 73.841 14.0473C74.3565 13.6732 75.0436 13.4779 75.9021 13.4613C76.4433 13.4508 76.883 13.503 77.2213 13.6178C77.5596 13.7326 77.8101 13.8911 77.9727 14.0933C78.1351 14.2862 78.2185 14.4946 78.2228 14.7186C78.2284 15.0078 78.1301 15.2338 77.9279 15.3964C77.735 15.5588 77.4193 15.6443 76.9807 15.6528C76.9717 15.1862 76.8621 14.8289 76.6519 14.581C76.4415 14.3237 76.1311 14.199 75.7205 14.2069C75.4872 14.2115 75.2779 14.2528 75.0928 14.3311C74.9169 14.4092 74.7791 14.5239 74.6793 14.6752C74.5794 14.8171 74.5314 14.9908 74.5354 15.1961C74.5394 15.4014 74.5989 15.5822 74.7139 15.7387C74.8288 15.8859 75.0229 16.0268 75.2962 16.1615C75.5696 16.2962 75.9411 16.4431 76.411 16.602C76.8621 16.7613 77.2437 16.9406 77.5556 17.1399C77.8767 17.3298 78.1239 17.563 78.2973 17.8397C78.4707 18.1164 78.5612 18.4507 78.5688 18.8426C78.5834 19.5985 78.3334 20.1868 77.8188 20.6075C77.3135 21.028 76.6036 21.2471 75.6892 21.2649Z" fill="white"/>
<path d="M86.9055 22.1407C85.8478 21.9582 85.0656 21.4964 84.559 20.7554C84.0615 20.016 83.9255 18.9933 84.1509 17.6873C84.3732 16.3996 84.8288 15.4885 85.5178 14.9539C86.216 14.4209 87.1353 14.2529 88.2757 14.4497C89.3426 14.6339 90.1248 15.0957 90.6223 15.8351C91.1198 16.5745 91.2574 17.588 91.0351 18.8756C90.8096 20.1816 90.3478 21.1011 89.6497 21.6341C88.9607 22.1687 88.046 22.3376 86.9055 22.1407ZM87.0736 21.3315C87.4691 21.3998 87.8008 21.3434 88.0689 21.1624C88.3477 20.9737 88.5774 20.6582 88.7579 20.2158C88.9385 19.7734 89.0859 19.2211 89.2002 18.5589C89.3161 17.8875 89.357 17.3215 89.3228 16.861C89.2979 16.4021 89.1849 16.0416 88.9838 15.7796C88.7936 15.5099 88.5007 15.341 88.1053 15.2727C87.719 15.206 87.3864 15.267 87.1076 15.4557C86.8304 15.6351 86.6031 15.9369 86.4257 16.3609C86.2483 16.7849 86.1017 17.3326 85.9858 18.004C85.8699 18.6754 85.8236 19.2452 85.847 19.7133C85.8796 20.183 85.991 20.5527 86.1812 20.8223C86.3806 21.0935 86.6781 21.2633 87.0736 21.3315Z" fill="white"/>
<path d="M91.3643 22.8051L91.5598 22.1476L91.8147 22.2234C91.9758 22.2713 92.1376 22.2999 92.3004 22.3093C92.4658 22.3098 92.6163 22.2621 92.7519 22.1661C92.8992 22.0638 93.0114 21.8829 93.0885 21.6235L94.5247 16.7924L93.3169 16.4334L93.5563 15.6282L94.764 15.9873L94.9316 15.4236C95.1736 14.6095 95.5758 14.0426 96.1382 13.723C96.7096 13.406 97.4292 13.3765 98.297 13.6344C98.8337 13.794 99.2378 13.9579 99.5091 14.1262C99.7893 14.2972 99.9708 14.4728 100.053 14.6532C100.145 14.8362 100.163 15.0217 100.107 15.2096C100.051 15.3974 99.9511 15.538 99.8065 15.6314C99.6646 15.7158 99.4725 15.756 99.2302 15.7522C98.9969 15.751 98.7281 15.7051 98.4239 15.6147C98.4691 15.4626 98.4902 15.2936 98.487 15.1077C98.4928 14.9244 98.4593 14.7587 98.3866 14.6104C98.3138 14.4622 98.1834 14.3602 97.9956 14.3043C97.7093 14.2192 97.4681 14.2936 97.272 14.5274C97.0849 14.7639 96.9062 15.1684 96.736 15.741L96.5086 16.5059L98.3739 17.0604L98.1345 17.8656L96.2692 17.3111L94.833 22.1421C94.7559 22.4015 94.7466 22.613 94.8051 22.7764C94.8663 22.9309 94.9708 23.0545 95.1185 23.1471C95.2689 23.2308 95.4201 23.2952 95.5722 23.3404L96.1627 23.5159L95.9672 24.1735L91.3643 22.8051Z" fill="white"/>
<path d="M103.41 27.5802C102.409 27.0787 101.787 26.3917 101.546 25.5192C101.317 24.6425 101.474 23.6617 102.017 22.5768C102.602 21.4084 103.302 20.6575 104.116 20.3241C104.943 19.9865 105.827 20.0538 106.77 20.526C107.647 20.9648 108.204 21.562 108.441 22.3176C108.691 23.0691 108.567 23.9414 108.07 24.9345L107.763 25.5479L103.632 23.4793C103.356 24.0719 103.193 24.5852 103.143 25.0193C103.105 25.4492 103.167 25.8144 103.33 26.115C103.501 26.4198 103.77 26.6642 104.137 26.8481C104.429 26.9943 104.709 27.0821 104.976 27.1115C105.256 27.1367 105.514 27.1202 105.752 27.0619C105.995 26.9952 106.21 26.8993 106.397 26.7742C106.468 26.8619 106.504 26.9684 106.504 27.0936C106.516 27.2147 106.491 27.3378 106.428 27.463C106.324 27.6716 106.134 27.8322 105.858 27.9447C105.591 28.0614 105.249 28.0988 104.831 28.0568C104.427 28.0107 103.953 27.8518 103.41 27.5802ZM106.474 23.9631C106.687 23.5375 106.836 23.1473 106.919 22.7925C107.003 22.4378 107.003 22.1352 106.92 21.8847C106.849 21.63 106.676 21.4338 106.401 21.2959C106.134 21.1621 105.864 21.1265 105.593 21.189C105.33 21.2556 105.065 21.4203 104.798 21.6831C104.543 21.9418 104.288 22.2943 104.033 22.7408L106.474 23.9631Z" fill="white"/>
<path d="M106.796 29.1382L107.184 28.5727L107.288 28.644C107.473 28.7709 107.644 28.8599 107.801 28.9113C107.964 28.955 108.139 28.9626 108.329 28.9341C108.526 28.911 108.767 28.8561 109.053 28.7694L111.744 27.9678L111.598 25.065C111.585 24.8525 111.55 24.6643 111.493 24.5005C111.449 24.3342 111.388 24.1909 111.312 24.0708C111.236 23.9507 111.141 23.851 111.025 23.7717L110.875 23.6687L111.264 23.1032L114.622 25.4097L114.234 25.9752L114.199 25.9514C113.937 25.7717 113.737 25.6848 113.597 25.6906C113.47 25.6941 113.375 25.7419 113.311 25.8343C113.258 25.9112 113.225 26.0013 113.21 26.1047C113.204 26.2133 113.204 26.3609 113.212 26.5474L113.302 27.9L114.375 27.5498C114.539 27.4926 114.687 27.4247 114.82 27.3463C114.953 27.2679 115.054 27.1787 115.123 27.0787C115.218 26.9402 115.221 26.8121 115.132 26.6943C115.056 26.5742 114.93 26.4534 114.753 26.3318L114.718 26.3081L115.107 25.7426L117.715 27.5339L117.326 28.0993L117.222 28.028C117.076 27.9276 116.932 27.857 116.79 27.8162C116.654 27.7677 116.487 27.7551 116.29 27.7782C116.101 27.8067 115.854 27.8693 115.55 27.9661L113.331 28.6499L113.513 32.0192C113.528 32.2447 113.554 32.4379 113.591 32.5989C113.635 32.7652 113.694 32.9019 113.767 33.0091C113.841 33.1162 113.924 33.2015 114.016 33.2649L114.166 33.368L113.778 33.9335L110.374 31.5953L110.762 31.0298L110.82 31.0694C111.05 31.2279 111.245 31.3161 111.402 31.3338C111.565 31.3438 111.689 31.2872 111.774 31.1642C111.832 31.0795 111.868 30.9687 111.883 30.8317C111.903 30.687 111.903 30.432 111.882 30.0667L111.788 28.6946L110.259 29.1899C110.127 29.2347 109.994 29.2963 109.861 29.3747C109.733 29.4454 109.632 29.5346 109.558 29.6423C109.473 29.7654 109.461 29.8986 109.521 30.0418C109.594 30.1826 109.758 30.3402 110.012 30.5146L110.046 30.5384L109.658 31.1038L106.796 29.1382Z" fill="white"/>
<path d="M116.768 36.794C116.282 36.3574 115.935 35.877 115.729 35.3527C115.522 34.8284 115.498 34.2613 115.657 33.6513C115.823 33.0345 116.22 32.3754 116.85 31.6741C117.518 30.9312 118.149 30.4446 118.745 30.2144C119.354 29.9835 119.923 29.9431 120.453 30.0931C120.99 30.2494 121.492 30.5365 121.957 30.9544C122.346 31.3036 122.645 31.6544 122.856 32.0066C123.073 32.3651 123.194 32.699 123.217 33.0084C123.24 33.3178 123.152 33.5836 122.952 33.8057C122.815 33.9585 122.652 34.0631 122.463 34.1194C122.288 34.1751 122.082 34.1597 121.846 34.0732C121.61 33.9867 121.343 33.8093 121.045 33.5412C121.257 33.3051 121.426 33.068 121.552 32.8299C121.685 32.5981 121.749 32.3733 121.744 32.1554C121.745 31.9438 121.646 31.7476 121.444 31.5667C121.222 31.3671 120.962 31.2588 120.664 31.2418C120.378 31.224 120.038 31.3447 119.642 31.6038C119.246 31.863 118.777 32.2946 118.234 32.8986C117.804 33.3777 117.494 33.8206 117.304 34.2273C117.121 34.6271 117.055 34.9941 117.105 35.3285C117.163 35.6691 117.355 35.9859 117.682 36.2791C117.911 36.4849 118.15 36.6373 118.4 36.7362C118.657 36.8415 118.908 36.8974 119.153 36.9041C119.411 36.9101 119.647 36.871 119.86 36.7869C119.886 36.8979 119.882 37.0071 119.848 37.1147C119.821 37.2285 119.764 37.334 119.677 37.4312C119.521 37.6048 119.299 37.7125 119.01 37.7544C118.721 37.7963 118.385 37.745 118 37.6003C117.623 37.4619 117.212 37.1932 116.768 36.794Z" fill="white"/>
<path d="M121.822 42.0354C121.088 41.1887 120.777 40.3161 120.888 39.4176C121.012 38.52 121.533 37.6741 122.45 36.8799C123.438 36.0245 124.372 35.5987 125.251 35.6023C126.144 35.607 126.936 36.0079 127.626 36.8052C128.268 37.5461 128.554 38.311 128.484 39.1C128.427 39.8899 127.979 40.6484 127.139 41.3754L126.621 41.8245L123.596 38.3319C123.115 38.7737 122.767 39.1854 122.555 39.5671C122.355 39.9498 122.273 40.3111 122.308 40.6511C122.349 40.9981 122.504 41.3269 122.773 41.6373C122.987 41.8843 123.212 42.0725 123.447 42.2019C123.696 42.3322 123.941 42.416 124.183 42.4533C124.433 42.4844 124.668 42.4782 124.889 42.4345C124.921 42.5427 124.913 42.6546 124.865 42.7702C124.831 42.8868 124.76 42.991 124.654 43.0826C124.478 43.2353 124.241 43.3109 123.943 43.3094C123.652 43.3149 123.321 43.2184 122.952 43.0198C122.595 42.8222 122.219 42.494 121.822 42.0354ZM126.037 39.867C126.397 39.5554 126.683 39.2518 126.896 38.9561C127.109 38.6604 127.225 38.3809 127.244 38.1176C127.276 37.8553 127.192 37.6077 126.99 37.3748C126.794 37.149 126.559 37.0131 126.285 36.9669C126.016 36.9277 125.708 36.9784 125.361 37.1188C125.026 37.2602 124.656 37.4883 124.25 37.8032L126.037 39.867Z" fill="white"/>
<path d="M124.406 44.8374L124.966 44.4416L125.071 44.5902C125.168 44.7274 125.277 44.85 125.399 44.9581C125.529 45.0607 125.677 45.1163 125.843 45.1247C126.022 45.1354 126.222 45.0627 126.443 44.9065L132.526 40.6087C132.739 40.4579 132.863 40.3018 132.898 40.1403C132.94 39.9734 132.93 39.8144 132.869 39.6633C132.808 39.5122 132.732 39.3718 132.64 39.2422L132.535 39.0936L133.096 38.6977L134.857 41.1903L127.493 46.3929C127.272 46.5491 127.134 46.7095 127.079 46.8741C127.037 47.041 127.043 47.2027 127.096 47.3592C127.162 47.518 127.241 47.6621 127.333 47.7917L127.438 47.9404L126.878 48.3362L124.406 44.8374Z" fill="white"/>
<path d="M127.105 48.686L127.694 48.3354L127.787 48.4919C127.873 48.6363 127.973 48.7671 128.086 48.8844C128.207 48.997 128.35 49.064 128.515 49.0855C128.692 49.1102 128.898 49.0534 129.13 48.9151L135.532 45.1088C135.757 44.9752 135.893 44.8293 135.94 44.671C135.995 44.508 135.998 44.3487 135.949 44.1933C135.9 44.0378 135.835 43.8919 135.754 43.7555L135.661 43.5991L136.25 43.2485L137.81 45.8719L130.06 50.4794C129.828 50.6178 129.677 50.7668 129.609 50.9266C129.554 51.0897 129.547 51.2513 129.588 51.4115C129.642 51.575 129.71 51.725 129.791 51.8613L129.884 52.0178L129.294 52.3684L127.105 48.686Z" fill="white"/>
<path d="M131.04 56.4009C130.567 55.3856 130.508 54.4611 130.861 53.6275C131.226 52.7984 131.959 52.1277 133.059 51.6156C134.244 51.0641 135.258 50.9108 136.103 51.1557C136.961 51.4051 137.612 52.0079 138.057 52.964C138.471 53.8524 138.536 54.6664 138.252 55.4059C137.981 56.1499 137.342 56.7563 136.335 57.2251L135.713 57.5147L133.763 53.3264C133.178 53.6191 132.732 53.9198 132.422 54.2285C132.125 54.5417 131.947 54.8666 131.888 55.2032C131.832 55.5482 131.891 55.9069 132.064 56.2792C132.202 56.5753 132.367 56.8179 132.558 57.007C132.761 57.2005 132.974 57.3485 133.197 57.4507C133.428 57.549 133.656 57.6076 133.881 57.6264C133.882 57.7392 133.843 57.8446 133.765 57.9426C133.7 58.0452 133.604 58.126 133.477 58.1851C133.265 58.2836 133.017 58.2913 132.731 58.2081C132.449 58.1334 132.158 57.9499 131.857 57.6576C131.568 57.3698 131.296 56.9509 131.04 56.4009ZM135.688 55.4721C136.12 55.2712 136.479 55.0578 136.765 54.832C137.051 54.6061 137.239 54.3692 137.33 54.1212C137.432 53.8777 137.419 53.6163 137.289 53.3371C137.163 53.0664 136.974 52.8711 136.723 52.7513C136.475 52.64 136.165 52.6043 135.792 52.644C135.432 52.6882 135.013 52.8059 134.536 52.9972L135.688 55.4721Z" fill="white"/>
<path d="M132.782 59.9136L133.437 59.7117L133.454 59.7652C133.517 59.9703 133.595 60.1463 133.689 60.2931C133.784 60.4399 133.911 60.5373 134.072 60.5853C134.237 60.6422 134.452 60.6295 134.72 60.547L138.761 59.3023C139.019 59.2226 139.197 59.1189 139.295 58.9913C139.392 58.8636 139.435 58.7185 139.424 58.5558C139.425 58.3994 139.395 58.223 139.334 58.0268L139.318 57.9733L139.974 57.7713L140.765 60.3402L139.815 60.8233L139.836 60.8902C140.23 60.9641 140.538 61.079 140.762 61.2347C140.998 61.3965 141.179 61.5896 141.307 61.814C141.437 62.0473 141.546 62.3066 141.634 62.592C141.849 63.2878 141.811 63.8951 141.522 64.4139C141.232 64.9328 140.633 65.3324 139.723 65.6126L136.592 66.5771C136.316 66.6623 136.121 66.7611 136.01 66.8737C135.901 66.9952 135.844 67.1297 135.841 67.2773C135.84 67.4337 135.87 67.6101 135.931 67.8063L135.947 67.8598L135.292 68.0618L134.451 65.3323L138.933 63.9516C139.513 63.773 139.93 63.542 140.184 63.2585C140.45 62.9812 140.515 62.6195 140.377 62.1735C140.273 61.8346 140.093 61.5972 139.836 61.4614C139.582 61.3346 139.281 61.276 138.932 61.2857C138.586 61.3044 138.226 61.3714 137.851 61.4868L135.202 62.3029C134.944 62.3825 134.764 62.4818 134.664 62.6005C134.567 62.7282 134.519 62.8747 134.521 63.0401C134.532 63.2027 134.568 63.3821 134.628 63.5783L134.645 63.6319L133.989 63.8338L132.782 59.9136Z" fill="white"/>
<path d="M135.941 72.4419C135.832 71.7978 135.86 71.2062 136.024 70.6672C136.188 70.1281 136.522 69.6692 137.026 69.2903C137.539 68.9098 138.26 68.6408 139.189 68.4831C140.174 68.3162 140.971 68.3277 141.581 68.5178C142.201 68.7155 142.672 69.0379 142.994 69.485C143.318 69.9414 143.532 70.4778 143.636 71.0943C143.724 71.6096 143.74 72.0707 143.686 72.4774C143.634 72.8934 143.521 73.2298 143.346 73.4865C143.172 73.7432 142.938 73.8966 142.643 73.9465C142.441 73.9808 142.248 73.9614 142.065 73.8883C141.893 73.8228 141.742 73.6829 141.611 73.4684C141.48 73.254 141.381 72.9489 141.314 72.5532C141.627 72.5002 141.906 72.4196 142.153 72.3115C142.401 72.2126 142.591 72.0762 142.723 71.9025C142.856 71.7379 142.9 71.5222 142.854 71.2553C142.804 70.9609 142.668 70.7142 142.445 70.5154C142.233 70.3242 141.891 70.207 141.42 70.1639C140.948 70.1207 140.313 70.167 139.512 70.3028C138.877 70.4105 138.359 70.5646 137.957 70.7652C137.565 70.9643 137.285 71.2106 137.117 71.5041C136.951 71.8069 136.904 72.1745 136.978 72.607C137.029 72.9107 137.122 73.1789 137.256 73.4118C137.392 73.6538 137.553 73.8536 137.741 74.0111C137.94 74.1762 138.149 74.2923 138.368 74.3592C138.319 74.4621 138.248 74.5452 138.155 74.6083C138.063 74.6807 137.953 74.7278 137.824 74.7497C137.594 74.7887 137.353 74.7349 137.101 74.5883C136.849 74.4417 136.617 74.1923 136.406 73.84C136.196 73.4969 136.041 73.0308 135.941 72.4419Z" fill="white"/>
<path d="M136.666 79.6889C136.612 78.5703 136.905 77.6916 137.547 77.053C138.198 76.4232 139.13 76.0788 140.342 76.0198C141.647 75.9563 142.645 76.1974 143.335 76.7431C144.034 77.2977 144.41 78.1017 144.461 79.1552C144.509 80.134 144.262 80.9123 143.72 81.49C143.188 82.0766 142.367 82.3969 141.258 82.4509L140.573 82.4842L140.348 77.8697C139.696 77.9201 139.169 78.0299 138.766 78.199C138.373 78.377 138.085 78.6106 137.903 78.8998C137.721 79.1984 137.641 79.5527 137.66 79.9629C137.676 80.2892 137.737 80.5759 137.843 80.8231C137.958 81.0791 138.099 81.2965 138.267 81.4752C138.444 81.6535 138.633 81.7938 138.834 81.8961C138.792 82.0009 138.717 82.084 138.608 82.1454C138.508 82.2157 138.389 82.2542 138.249 82.261C138.016 82.2723 137.783 82.1856 137.549 82.0007C137.317 81.8251 137.116 81.5452 136.948 81.161C136.789 80.7856 136.695 80.2949 136.666 79.6889ZM141.321 80.5836C141.796 80.5604 142.209 80.4983 142.559 80.3971C142.91 80.296 143.173 80.1476 143.351 79.9521C143.538 79.7655 143.624 79.5183 143.609 79.2107C143.594 78.9124 143.493 78.6603 143.306 78.4545C143.119 78.2581 142.845 78.1079 142.485 78.0039C142.135 77.9089 141.702 77.8598 141.188 77.8568L141.321 80.5836Z" fill="white"/>
</g>
<defs>
<linearGradient id="paint0_linear_11975_17865" x1="1" y1="77.5" x2="154" y2="77.5" gradientUnits="userSpaceOnUse">
<stop stop-color="#DCB967"/>
<stop offset="0.346154" stop-color="#C9A858"/>
<stop offset="0.706731" stop-color="#EDD56E"/>
<stop offset="1" stop-color="#E1BD59"/>
</linearGradient>
<linearGradient id="paint1_linear_11975_17865" x1="1" y1="77.5" x2="154" y2="77.5" gradientUnits="userSpaceOnUse">
<stop stop-color="#CBA943"/>
<stop offset="0.331731" stop-color="#F7EF89"/>
<stop offset="0.735577" stop-color="#D0AD48"/>
<stop offset="1" stop-color="#E3BC53"/>
</linearGradient>
<clipPath id="clip0_11975_17865">
<rect width="155" height="155" fill="white"/>
</clipPath>
</defs>
</svg>
